<svg xmlns="http://www.w3.org/2000/svg" width="1600" height="1000" viewBox="0 0 1600 1000">
<defs>
<linearGradient id="sky" x1="0" y1="0" x2="0" y2="1"><stop offset="0" stop-color="#020306"/><stop offset="1" stop-color="#080d16"/></linearGradient>
<linearGradient id="ground" x1="0" y1="0" x2="0" y2="1"><stop offset="0" stop-color="#3d3f43"/><stop offset="1" stop-color="#18191c"/></linearGradient>
<linearGradient id="structGrad" x1="0" y1="0" x2="1" y2="0"><stop offset="0" stop-color="#8f949b"/><stop offset=".55" stop-color="#5e636a"/><stop offset="1" stop-color="#3d4249"/></linearGradient>
<radialGradient id="earthLit" cx=".35" cy=".4" r=".7"><stop offset="0" stop-color="#e8f2ff"/><stop offset=".45" stop-color="#5b93d8"/><stop offset="1" stop-color="#1b3e78"/></radialGradient>
<radialGradient id="earthGlow"><stop offset=".5" stop-color="#6aa8ff" stop-opacity=".22"/><stop offset="1" stop-color="#6aa8ff" stop-opacity="0"/></radialGradient>
<radialGradient id="warmGlow"><stop offset="0" stop-color="#ffc27a" stop-opacity=".75"/><stop offset="1" stop-color="#ffc27a" stop-opacity="0"/></radialGradient>
<radialGradient id="redGlow"><stop offset="0" stop-color="#ff5a3a" stop-opacity=".7"/><stop offset="1" stop-color="#ff5a3a" stop-opacity="0"/></radialGradient>
<radialGradient id="coolGlow"><stop offset="0" stop-color="#bfe6ff" stop-opacity=".8"/><stop offset="1" stop-color="#bfe6ff" stop-opacity="0"/></radialGradient>
<radialGradient id="plume" cx=".5" cy=".2"><stop offset="0" stop-color="#ffffff" stop-opacity=".95"/><stop offset=".4" stop-color="#9fd4ff" stop-opacity=".5"/><stop offset="1" stop-color="#9fd4ff" stop-opacity="0"/></radialGradient>
<linearGradient id="horizonDust" x1="0" y1="0" x2="0" y2="1"><stop offset="0" stop-color="#1d1e21" stop-opacity="0"/><stop offset=".5" stop-color="#1d1e21" stop-opacity=".55"/><stop offset="1" stop-color="#1d1e21" stop-opacity="0"/></linearGradient>
<clipPath id="earthClip"><circle cx="1268" cy="176" r="64"/></clipPath>
</defs>
<rect width="1600" height="1000" fill="#020306"/>
<rect width="1600" height="640" fill="url(#sky)"/>
<circle cx="961.8" cy="185.4" r="1.5" fill="#dfe8ff" opacity="0.61"/>
<circle cx="279.7" cy="232.2" r="0.5" fill="#dfe8ff" opacity="0.55"/>
<circle cx="1384.8" cy="199.4" r="0.5" fill="#dfe8ff" opacity="0.73"/>
<circle cx="1193.2" cy="109.1" r="0.5" fill="#dfe8ff" opacity="0.56"/>
<circle cx="1098.6" cy="285.7" r="0.5" fill="#dfe8ff" opacity="0.43"/>
<circle cx="1339.7" cy="8.9" r="0.8" fill="#dfe8ff" opacity="0.27"/>
<circle cx="427.1" cy="11.6" r="0.5" fill="#dfe8ff" opacity="0.83"/>
<circle cx="848.5" cy="3.7" r="0.5" fill="#dfe8ff" opacity="0.88"/>
<circle cx="780.4" cy="423.7" r="0.6" fill="#dfe8ff" opacity="0.34"/>
<circle cx="59.9" cy="8.9" r="0.8" fill="#dfe8ff" opacity="0.69"/>
<circle cx="392.3" cy="309" r="0.5" fill="#dfe8ff" opacity="0.33"/>
<circle cx="1181.8" cy="460.5" r="0.7" fill="#dfe8ff" opacity="0.22"/>
<circle cx="454.7" cy="102.2" r="0.5" fill="#dfe8ff" opacity="0.67"/>
<circle cx="1089.2" cy="341.2" r="1.8" fill="#dfe8ff" opacity="0.21"/>
<circle cx="1510" cy="175.5" r="1.8" fill="#dfe8ff" opacity="0.29"/>
<circle cx="177.5" cy="1.7" r="0.6" fill="#dfe8ff" opacity="0.61"/>
<circle cx="979.1" cy="491.5" r="0.5" fill="#dfe8ff" opacity="0.40"/>
<circle cx="1495.8" cy="95.1" r="1.1" fill="#dfe8ff" opacity="0.35"/>
<circle cx="832.5" cy="433.1" r="0.5" fill="#dfe8ff" opacity="0.57"/>
<circle cx="900.5" cy="504.2" r="0.6" fill="#dfe8ff" opacity="0.34"/>
<circle cx="539.1" cy="276.4" r="0.6" fill="#dfe8ff" opacity="0.58"/>
<circle cx="472.3" cy="186.2" r="1.5" fill="#dfe8ff" opacity="0.63"/>
<circle cx="1590.4" cy="484.3" r="0.6" fill="#dfe8ff" opacity="0.34"/>
<circle cx="473.5" cy="23" r="1" fill="#dfe8ff" opacity="0.47"/>
<circle cx="1257.5" cy="495.5" r="0.5" fill="#dfe8ff" opacity="0.31"/>
<circle cx="1315.1" cy="32.8" r="2" fill="#dfe8ff" opacity="0.37"/>
<circle cx="1135.1" cy="345.7" r="0.5" fill="#dfe8ff" opacity="0.37"/>
<circle cx="261.5" cy="315" r="0.6" fill="#dfe8ff" opacity="0.28"/>
<circle cx="1006.2" cy="481.8" r="0.6" fill="#dfe8ff" opacity="0.44"/>
<circle cx="628.7" cy="33.3" r="1.5" fill="#dfe8ff" opacity="0.51"/>
<circle cx="15.2" cy="372.1" r="0.9" fill="#dfe8ff" opacity="0.57"/>
<circle cx="1453.1" cy="63.7" r="0.9" fill="#dfe8ff" opacity="0.58"/>
<circle cx="294.4" cy="8" r="1.1" fill="#dfe8ff" opacity="0.78"/>
<circle cx="466.4" cy="93.8" r="0.6" fill="#dfe8ff" opacity="0.25"/>
<circle cx="353.4" cy="564.8" r="0.8" fill="#dfe8ff" opacity="0.43"/>
<circle cx="262.2" cy="48" r="0.8" fill="#dfe8ff" opacity="0.45"/>
<circle cx="631.5" cy="177.4" r="0.6" fill="#dfe8ff" opacity="0.63"/>
<circle cx="637.6" cy="123.9" r="1.6" fill="#dfe8ff" opacity="0.43"/>
<circle cx="792.4" cy="285.9" r="0.8" fill="#dfe8ff" opacity="0.49"/>
<circle cx="376.7" cy="118.4" r="0.5" fill="#dfe8ff" opacity="0.43"/>
<circle cx="1070.9" cy="68.8" r="0.5" fill="#dfe8ff" opacity="0.72"/>
<circle cx="502.8" cy="31" r="0.5" fill="#dfe8ff" opacity="0.27"/>
<circle cx="924.1" cy="63.1" r="0.7" fill="#dfe8ff" opacity="0.50"/>
<circle cx="1139.3" cy="501.5" r="1.4" fill="#dfe8ff" opacity="0.29"/>
<circle cx="246.6" cy="467.2" r="0.7" fill="#dfe8ff" opacity="0.47"/>
<circle cx="1431.2" cy="186.4" r="0.5" fill="#dfe8ff" opacity="0.58"/>
<circle cx="1292.1" cy="63.4" r="0.6" fill="#dfe8ff" opacity="0.62"/>
<circle cx="1575.2" cy="211.2" r="1.5" fill="#dfe8ff" opacity="0.70"/>
<circle cx="1189.8" cy="9.5" r="0.5" fill="#dfe8ff" opacity="0.37"/>
<circle cx="810.5" cy="329.9" r="1.2" fill="#dfe8ff" opacity="0.67"/>
<circle cx="1305.6" cy="299.6" r="1.4" fill="#dfe8ff" opacity="0.62"/>
<circle cx="959" cy="131.7" r="0.6" fill="#dfe8ff" opacity="0.79"/>
<circle cx="1089.6" cy="130.7" r="1.8" fill="#dfe8ff" opacity="0.63"/>
<circle cx="526.9" cy="450" r="0.5" fill="#dfe8ff" opacity="0.29"/>
<circle cx="32" cy="18.2" r="0.9" fill="#dfe8ff" opacity="0.78"/>
<circle cx="1529.5" cy="476.2" r="0.7" fill="#dfe8ff" opacity="0.41"/>
<circle cx="232.2" cy="92.6" r="0.5" fill="#dfe8ff" opacity="0.26"/>
<circle cx="465.6" cy="181.2" r="0.8" fill="#dfe8ff" opacity="0.64"/>
<circle cx="1269.7" cy="406" r="0.5" fill="#dfe8ff" opacity="0.45"/>
<circle cx="828.5" cy="182.6" r="0.7" fill="#dfe8ff" opacity="0.49"/>
<circle cx="680.1" cy="121.7" r="0.5" fill="#dfe8ff" opacity="0.32"/>
<circle cx="807.4" cy="89.9" r="0.7" fill="#dfe8ff" opacity="0.60"/>
<circle cx="1035.8" cy="179" r="0.5" fill="#dfe8ff" opacity="0.21"/>
<circle cx="237.1" cy="525.2" r="0.5" fill="#dfe8ff" opacity="0.43"/>
<circle cx="688.6" cy="217.5" r="0.5" fill="#dfe8ff" opacity="0.68"/>
<circle cx="90.8" cy="142" r="0.5" fill="#dfe8ff" opacity="0.67"/>
<circle cx="902.5" cy="21" r="1.9" fill="#dfe8ff" opacity="0.80"/>
<circle cx="1057.9" cy="414.4" r="0.8" fill="#dfe8ff" opacity="0.50"/>
<circle cx="843.3" cy="50.4" r="0.5" fill="#dfe8ff" opacity="0.31"/>
<circle cx="95.3" cy="87.8" r="1" fill="#dfe8ff" opacity="0.69"/>
<circle cx="897.6" cy="551.5" r="0.5" fill="#dfe8ff" opacity="0.25"/>
<circle cx="540.5" cy="97.9" r="1.4" fill="#dfe8ff" opacity="0.59"/>
<circle cx="327.9" cy="526.1" r="1.9" fill="#dfe8ff" opacity="0.21"/>
<circle cx="829.4" cy="461.5" r="1.8" fill="#dfe8ff" opacity="0.41"/>
<circle cx="909.7" cy="424.3" r="0.5" fill="#dfe8ff" opacity="0.36"/>
<circle cx="1200.4" cy="246.7" r="1" fill="#dfe8ff" opacity="0.50"/>
<circle cx="873.6" cy="543.8" r="2" fill="#dfe8ff" opacity="0.38"/>
<circle cx="493.9" cy="299.5" r="1" fill="#dfe8ff" opacity="0.63"/>
<circle cx="619" cy="475" r="0.6" fill="#dfe8ff" opacity="0.48"/>
<circle cx="661.2" cy="125.7" r="0.7" fill="#dfe8ff" opacity="0.77"/>
<circle cx="988.6" cy="467.3" r="1" fill="#dfe8ff" opacity="0.19"/>
<circle cx="458.8" cy="539.5" r="0.7" fill="#dfe8ff" opacity="0.21"/>
<circle cx="1009.2" cy="396.2" r="1.1" fill="#dfe8ff" opacity="0.47"/>
<circle cx="297.4" cy="451.6" r="1.7" fill="#dfe8ff" opacity="0.36"/>
<circle cx="754.1" cy="14.5" r="0.7" fill="#dfe8ff" opacity="0.91"/>
<circle cx="1080.4" cy="169.8" r="0.6" fill="#dfe8ff" opacity="0.59"/>
<circle cx="1147.6" cy="226.9" r="0.5" fill="#dfe8ff" opacity="0.29"/>
<circle cx="156.1" cy="29.7" r="0.6" fill="#dfe8ff" opacity="0.85"/>
<circle cx="1340.6" cy="334.5" r="0.5" fill="#dfe8ff" opacity="0.18"/>
<circle cx="432.4" cy="346" r="0.5" fill="#dfe8ff" opacity="0.58"/>
<circle cx="1001.7" cy="498.7" r="1.6" fill="#dfe8ff" opacity="0.26"/>
<circle cx="159.7" cy="296.7" r="0.5" fill="#dfe8ff" opacity="0.43"/>
<circle cx="446" cy="86.5" r="1.1" fill="#dfe8ff" opacity="0.58"/>
<circle cx="781" cy="273.6" r="0.5" fill="#dfe8ff" opacity="0.61"/>
<circle cx="1102.5" cy="506.1" r="0.5" fill="#dfe8ff" opacity="0.15"/>
<circle cx="53.1" cy="126.1" r="0.5" fill="#dfe8ff" opacity="0.37"/>
<circle cx="1584.6" cy="266.6" r="1.4" fill="#dfe8ff" opacity="0.37"/>
<circle cx="1038.6" cy="4.6" r="1.1" fill="#dfe8ff" opacity="0.85"/>
<circle cx="601.4" cy="61.8" r="1.3" fill="#dfe8ff" opacity="0.59"/>
<circle cx="221" cy="17.3" r="1.2" fill="#dfe8ff" opacity="0.56"/>
<circle cx="1392.6" cy="411.3" r="0.7" fill="#dfe8ff" opacity="0.57"/>
<circle cx="280.7" cy="38.4" r="0.8" fill="#dfe8ff" opacity="0.73"/>
<circle cx="330.5" cy="395.5" r="0.5" fill="#dfe8ff" opacity="0.21"/>
<circle cx="1055.8" cy="280.6" r="0.8" fill="#dfe8ff" opacity="0.29"/>
<circle cx="1475.3" cy="229.3" r="1.2" fill="#dfe8ff" opacity="0.22"/>
<circle cx="1532" cy="266.1" r="0.5" fill="#dfe8ff" opacity="0.21"/>
<circle cx="522" cy="354.2" r="1.2" fill="#dfe8ff" opacity="0.28"/>
<circle cx="1380.4" cy="189.7" r="0.5" fill="#dfe8ff" opacity="0.59"/>
<circle cx="812" cy="55.1" r="1.5" fill="#dfe8ff" opacity="0.30"/>
<circle cx="218.2" cy="566" r="0.5" fill="#dfe8ff" opacity="0.26"/>
<circle cx="813.9" cy="291.6" r="0.7" fill="#dfe8ff" opacity="0.54"/>
<circle cx="253.4" cy="553.3" r="1.4" fill="#dfe8ff" opacity="0.23"/>
<circle cx="327.8" cy="227" r="1.2" fill="#dfe8ff" opacity="0.45"/>
<circle cx="776.3" cy="82.8" r="0.7" fill="#dfe8ff" opacity="0.25"/>
<circle cx="1378.7" cy="138.3" r="0.6" fill="#dfe8ff" opacity="0.38"/>
<circle cx="806.3" cy="6.5" r="1" fill="#dfe8ff" opacity="0.30"/>
<circle cx="1441.8" cy="390.4" r="1" fill="#dfe8ff" opacity="0.52"/>
<circle cx="86" cy="270.2" r="0.8" fill="#dfe8ff" opacity="0.45"/>
<circle cx="819.9" cy="201.3" r="0.6" fill="#dfe8ff" opacity="0.55"/>
<circle cx="26.1" cy="351.7" r="0.5" fill="#dfe8ff" opacity="0.50"/>
<circle cx="293.2" cy="141.2" r="1.1" fill="#dfe8ff" opacity="0.81"/>
<circle cx="446.4" cy="290.6" r="1.7" fill="#dfe8ff" opacity="0.42"/>
<circle cx="73" cy="257.8" r="0.7" fill="#dfe8ff" opacity="0.43"/>
<circle cx="749.4" cy="383.7" r="0.5" fill="#dfe8ff" opacity="0.48"/>
<circle cx="952.1" cy="527.1" r="1.4" fill="#dfe8ff" opacity="0.29"/>
<circle cx="13.2" cy="499.9" r="0.5" fill="#dfe8ff" opacity="0.32"/>
<circle cx="778.9" cy="333.5" r="0.8" fill="#dfe8ff" opacity="0.47"/>
<circle cx="1363.1" cy="321.5" r="2" fill="#dfe8ff" opacity="0.67"/>
<circle cx="1547.4" cy="425.6" r="1.9" fill="#dfe8ff" opacity="0.49"/>
<circle cx="254.9" cy="19.4" r="2.1" fill="#dfe8ff" opacity="0.27"/>
<circle cx="785.8" cy="472.3" r="1" fill="#dfe8ff" opacity="0.44"/>
<circle cx="524.2" cy="447" r="0.6" fill="#dfe8ff" opacity="0.52"/>
<circle cx="1049.2" cy="82.1" r="0.5" fill="#dfe8ff" opacity="0.49"/>
<circle cx="1159.4" cy="8.7" r="0.5" fill="#dfe8ff" opacity="0.43"/>
<circle cx="993.4" cy="144" r="0.9" fill="#dfe8ff" opacity="0.84"/>
<circle cx="655.3" cy="411.6" r="1.1" fill="#dfe8ff" opacity="0.15"/>
<circle cx="1094.6" cy="473" r="0.5" fill="#dfe8ff" opacity="0.37"/>
<circle cx="1439.1" cy="196.2" r="0.6" fill="#dfe8ff" opacity="0.71"/>
<circle cx="1009.9" cy="113.2" r="0.7" fill="#dfe8ff" opacity="0.57"/>
<circle cx="1593.4" cy="48.8" r="0.8" fill="#dfe8ff" opacity="0.29"/>
<circle cx="1030.6" cy="413.8" r="0.6" fill="#dfe8ff" opacity="0.41"/>
<circle cx="1335.7" cy="153.6" r="0.8" fill="#dfe8ff" opacity="0.32"/>
<circle cx="1562.4" cy="52.2" r="1" fill="#dfe8ff" opacity="0.74"/>
<circle cx="906.8" cy="244.7" r="0.9" fill="#dfe8ff" opacity="0.70"/>
<circle cx="1234.5" cy="0" r="0.5" fill="#dfe8ff" opacity="0.32"/>
<circle cx="1455.3" cy="0" r="0.5" fill="#dfe8ff" opacity="0.64"/>
<circle cx="92" cy="377.6" r="0.9" fill="#dfe8ff" opacity="0.16"/>
<circle cx="649.1" cy="436.2" r="0.6" fill="#dfe8ff" opacity="0.22"/>
<circle cx="1188.2" cy="313.6" r="0.5" fill="#dfe8ff" opacity="0.49"/>
<circle cx="943.4" cy="454.8" r="0.8" fill="#dfe8ff" opacity="0.31"/>
<circle cx="941.1" cy="164.3" r="0.8" fill="#dfe8ff" opacity="0.33"/>
<circle cx="216.3" cy="351" r="1.1" fill="#dfe8ff" opacity="0.30"/>
<circle cx="1477.3" cy="525.3" r="0.6" fill="#dfe8ff" opacity="0.33"/>
<circle cx="541.2" cy="322.8" r="2" fill="#dfe8ff" opacity="0.62"/>
<circle cx="1109.1" cy="127.6" r="1.7" fill="#dfe8ff" opacity="0.55"/>
<circle cx="1468" cy="74.3" r="0.5" fill="#dfe8ff" opacity="0.45"/>
<circle cx="1572.3" cy="219.5" r="2" fill="#dfe8ff" opacity="0.21"/>
<circle cx="1042.9" cy="281.1" r="2" fill="#dfe8ff" opacity="0.31"/>
<circle cx="1541.1" cy="70.1" r="1.9" fill="#dfe8ff" opacity="0.45"/>
<circle cx="820" cy="152.4" r="0.5" fill="#dfe8ff" opacity="0.39"/>
<circle cx="1510.9" cy="296.5" r="0.6" fill="#dfe8ff" opacity="0.45"/>
<circle cx="583.2" cy="184" r="0.5" fill="#dfe8ff" opacity="0.55"/>
<circle cx="1439.7" cy="318" r="0.8" fill="#dfe8ff" opacity="0.62"/>
<circle cx="939.7" cy="457.1" r="0.6" fill="#dfe8ff" opacity="0.39"/>
<circle cx="727.8" cy="271.1" r="1" fill="#dfe8ff" opacity="0.52"/>
<circle cx="654" cy="48.9" r="0.5" fill="#dfe8ff" opacity="0.74"/>
<circle cx="611.4" cy="119" r="0.5" fill="#dfe8ff" opacity="0.30"/>
<circle cx="1038.5" cy="96.5" r="0.5" fill="#dfe8ff" opacity="0.54"/>
<circle cx="1119.6" cy="35.1" r="1.1" fill="#dfe8ff" opacity="0.40"/>
<circle cx="446" cy="292.3" r="0.6" fill="#dfe8ff" opacity="0.36"/>
<circle cx="985.5" cy="196.8" r="1.4" fill="#dfe8ff" opacity="0.25"/>
<circle cx="319.1" cy="128.9" r="1.6" fill="#dfe8ff" opacity="0.78"/>
<circle cx="1524.6" cy="195.6" r="0.5" fill="#dfe8ff" opacity="0.60"/>
<circle cx="979.3" cy="382.5" r="1.8" fill="#dfe8ff" opacity="0.34"/>
<circle cx="601.7" cy="44.7" r="1.7" fill="#dfe8ff" opacity="0.65"/>
<circle cx="278.1" cy="5.2" r="1.5" fill="#dfe8ff" opacity="0.32"/>
<circle cx="855.2" cy="229.9" r="0.8" fill="#dfe8ff" opacity="0.76"/>
<circle cx="841.4" cy="328.8" r="0.7" fill="#dfe8ff" opacity="0.62"/>
<circle cx="1414.9" cy="19" r="0.5" fill="#dfe8ff" opacity="0.92"/>
<circle cx="620.8" cy="348.2" r="0.7" fill="#dfe8ff" opacity="0.38"/>
<circle cx="519.2" cy="142.7" r="0.6" fill="#dfe8ff" opacity="0.63"/>
<circle cx="1394.5" cy="477.6" r="0.5" fill="#dfe8ff" opacity="0.36"/>
<circle cx="788" cy="226.2" r="1.1" fill="#dfe8ff" opacity="0.53"/>
<circle cx="653.9" cy="567.7" r="0.5" fill="#dfe8ff" opacity="0.25"/>
<circle cx="67.7" cy="41.7" r="0.5" fill="#dfe8ff" opacity="0.33"/>
<circle cx="542.3" cy="392.3" r="0.7" fill="#dfe8ff" opacity="0.36"/>
<circle cx="606.5" cy="567.6" r="1.1" fill="#dfe8ff" opacity="0.25"/>
<circle cx="557.6" cy="380.6" r="0.5" fill="#dfe8ff" opacity="0.43"/>
<circle cx="422.3" cy="26.9" r="1.5" fill="#dfe8ff" opacity="0.52"/>
<circle cx="188.7" cy="529.2" r="0.5" fill="#dfe8ff" opacity="0.38"/>
<circle cx="920.2" cy="12.5" r="0.9" fill="#dfe8ff" opacity="0.90"/>
<circle cx="303.6" cy="448.6" r="0.5" fill="#dfe8ff" opacity="0.54"/>
<circle cx="721.6" cy="167.8" r="0.5" fill="#dfe8ff" opacity="0.45"/>
<circle cx="84" cy="148.6" r="0.7" fill="#dfe8ff" opacity="0.47"/>
<circle cx="26.2" cy="540.2" r="1.2" fill="#dfe8ff" opacity="0.19"/>
<circle cx="199.2" cy="55.7" r="1" fill="#dfe8ff" opacity="0.80"/>
<circle cx="1561.4" cy="455.5" r="1.6" fill="#dfe8ff" opacity="0.24"/>
<circle cx="1130.3" cy="221.5" r="1.4" fill="#dfe8ff" opacity="0.32"/>
<circle cx="2.6" cy="447.7" r="1.7" fill="#dfe8ff" opacity="0.52"/>
<circle cx="362.4" cy="34.7" r="0.5" fill="#dfe8ff" opacity="0.93"/>
<circle cx="1074.5" cy="300.5" r="0.5" fill="#dfe8ff" opacity="0.51"/>
<circle cx="1100.9" cy="412.4" r="0.5" fill="#dfe8ff" opacity="0.52"/>
<circle cx="362.2" cy="231.6" r="0.6" fill="#dfe8ff" opacity="0.24"/>
<circle cx="438.9" cy="492" r="2.1" fill="#dfe8ff" opacity="0.34"/>
<circle cx="328.9" cy="4.9" r="1.4" fill="#dfe8ff" opacity="0.28"/>
<circle cx="1481.9" cy="124.4" r="1.9" fill="#dfe8ff" opacity="0.84"/>
<circle cx="1229.5" cy="39.1" r="0.6" fill="#dfe8ff" opacity="0.44"/>
<circle cx="110.3" cy="303.8" r="0.8" fill="#dfe8ff" opacity="0.49"/>
<circle cx="1052.9" cy="272.7" r="0.5" fill="#dfe8ff" opacity="0.66"/>
<circle cx="1095.4" cy="294.5" r="0.6" fill="#dfe8ff" opacity="0.60"/>
<circle cx="359" cy="172.2" r="0.5" fill="#dfe8ff" opacity="0.79"/>
<circle cx="318.6" cy="73.2" r="0.9" fill="#dfe8ff" opacity="0.65"/>
<circle cx="893.7" cy="172.9" r="0.6" fill="#dfe8ff" opacity="0.43"/>
<circle cx="686.5" cy="362.9" r="0.5" fill="#dfe8ff" opacity="0.46"/>
<circle cx="1039.3" cy="310.8" r="1.6" fill="#dfe8ff" opacity="0.61"/>
<circle cx="776.9" cy="401.2" r="0.5" fill="#dfe8ff" opacity="0.36"/>
<circle cx="1045" cy="158.2" r="0.5" fill="#dfe8ff" opacity="0.83"/>
<circle cx="1475.3" cy="176.3" r="1.8" fill="#dfe8ff" opacity="0.77"/>
<circle cx="154.9" cy="213.9" r="1.5" fill="#dfe8ff" opacity="0.36"/>
<circle cx="789.1" cy="415.9" r="0.6" fill="#dfe8ff" opacity="0.46"/>
<circle cx="568.5" cy="536.2" r="0.5" fill="#dfe8ff" opacity="0.45"/>
<circle cx="1185.3" cy="192.1" r="0.5" fill="#dfe8ff" opacity="0.36"/>
<circle cx="589" cy="91.1" r="0.5" fill="#dfe8ff" opacity="0.25"/>
<circle cx="1134.7" cy="42.1" r="0.5" fill="#dfe8ff" opacity="0.27"/>
<circle cx="1276" cy="19.4" r="1.1" fill="#dfe8ff" opacity="0.65"/>
<circle cx="724.8" cy="123.5" r="0.9" fill="#dfe8ff" opacity="0.61"/>
<circle cx="481.2" cy="403.9" r="1.6" fill="#dfe8ff" opacity="0.48"/>
<circle cx="1065.7" cy="204.9" r="0.6" fill="#dfe8ff" opacity="0.56"/>
<circle cx="1571.1" cy="105" r="0.6" fill="#dfe8ff" opacity="0.50"/>
<circle cx="467.3" cy="331.9" r="0.6" fill="#dfe8ff" opacity="0.26"/>
<circle cx="1031.2" cy="410.3" r="0.8" fill="#dfe8ff" opacity="0.58"/>
<circle cx="1392.5" cy="496.3" r="0.8" fill="#dfe8ff" opacity="0.32"/>
<circle cx="621.7" cy="457.8" r="0.5" fill="#dfe8ff" opacity="0.16"/>
<circle cx="969.6" cy="2.2" r="0.5" fill="#dfe8ff" opacity="0.79"/>
<circle cx="269.3" cy="76.5" r="0.5" fill="#dfe8ff" opacity="0.50"/>
<circle cx="1550.4" cy="204.8" r="1.1" fill="#dfe8ff" opacity="0.71"/>
<circle cx="1297" cy="89.2" r="1.4" fill="#dfe8ff" opacity="0.48"/>
<circle cx="409.1" cy="10.7" r="1.1" fill="#dfe8ff" opacity="0.81"/>
<circle cx="1425.5" cy="209.6" r="0.5" fill="#dfe8ff" opacity="0.56"/>
<circle cx="1017" cy="93.5" r="1.6" fill="#dfe8ff" opacity="0.77"/>
<circle cx="1003.6" cy="296" r="0.7" fill="#dfe8ff" opacity="0.66"/>
<circle cx="651.8" cy="536.9" r="1.4" fill="#dfe8ff" opacity="0.15"/>
<circle cx="1401.4" cy="358.9" r="1.4" fill="#dfe8ff" opacity="0.28"/>
<circle cx="189.9" cy="445.9" r="0.6" fill="#dfe8ff" opacity="0.37"/>
<circle cx="1385.5" cy="163.4" r="0.6" fill="#dfe8ff" opacity="0.54"/>
<circle cx="71" cy="99.7" r="1.9" fill="#dfe8ff" opacity="0.87"/>
<circle cx="908.4" cy="235.2" r="0.5" fill="#dfe8ff" opacity="0.24"/>
<circle cx="1404.2" cy="98.9" r="0.5" fill="#dfe8ff" opacity="0.90"/>
<circle cx="1058.3" cy="80.5" r="0.5" fill="#dfe8ff" opacity="0.37"/>
<circle cx="360.4" cy="488.4" r="2" fill="#dfe8ff" opacity="0.37"/>
<circle cx="618.4" cy="383.8" r="0.5" fill="#dfe8ff" opacity="0.42"/>
<circle cx="737.3" cy="274.2" r="0.6" fill="#dfe8ff" opacity="0.45"/>
<circle cx="761.2" cy="209.9" r="1" fill="#dfe8ff" opacity="0.33"/>
<circle cx="1094.1" cy="424.7" r="0.9" fill="#dfe8ff" opacity="0.20"/>
<circle cx="528.9" cy="49.4" r="1.6" fill="#dfe8ff" opacity="0.31"/>
<circle cx="849.8" cy="385.3" r="0.5" fill="#dfe8ff" opacity="0.17"/>
<circle cx="798.3" cy="13.8" r="1.3" fill="#dfe8ff" opacity="0.60"/>
<circle cx="377" cy="291.7" r="0.8" fill="#dfe8ff" opacity="0.46"/>
<circle cx="1342.7" cy="553.3" r="0.5" fill="#dfe8ff" opacity="0.11"/>
<circle cx="1321.3" cy="408.4" r="0.7" fill="#dfe8ff" opacity="0.18"/>
<circle cx="435.5" cy="76.1" r="1.3" fill="#dfe8ff" opacity="0.55"/>
<circle cx="209.9" cy="98.8" r="0.9" fill="#dfe8ff" opacity="0.72"/>
<circle cx="1173.3" cy="541.6" r="0.7" fill="#dfe8ff" opacity="0.41"/>
<circle cx="1459" cy="348.4" r="1.5" fill="#dfe8ff" opacity="0.34"/>
<circle cx="312.3" cy="11" r="0.7" fill="#dfe8ff" opacity="0.71"/>
<circle cx="444.4" cy="545.3" r="2" fill="#dfe8ff" opacity="0.36"/>
<circle cx="1564.4" cy="78.5" r="1.3" fill="#dfe8ff" opacity="0.28"/>
<circle cx="480.1" cy="225.8" r="0.9" fill="#dfe8ff" opacity="0.77"/>
<circle cx="1217.1" cy="379.8" r="1.4" fill="#dfe8ff" opacity="0.62"/>
<circle cx="1285.6" cy="460.9" r="0.8" fill="#dfe8ff" opacity="0.50"/>
<circle cx="599.4" cy="251" r="0.5" fill="#dfe8ff" opacity="0.39"/>
<circle cx="320.2" cy="373.4" r="0.5" fill="#dfe8ff" opacity="0.47"/>
<circle cx="354" cy="401.8" r="0.5" fill="#dfe8ff" opacity="0.16"/>
<circle cx="234.2" cy="55.6" r="1.8" fill="#dfe8ff" opacity="0.92"/>
<circle cx="549.3" cy="120.8" r="1.7" fill="#dfe8ff" opacity="0.71"/>
<circle cx="360.9" cy="121.7" r="0.5" fill="#dfe8ff" opacity="0.60"/>
<circle cx="1437.6" cy="347.3" r="1.3" fill="#dfe8ff" opacity="0.57"/>
<circle cx="1112.7" cy="359.3" r="0.5" fill="#dfe8ff" opacity="0.29"/>
<circle cx="659.1" cy="71.5" r="1.9" fill="#dfe8ff" opacity="0.34"/>
<circle cx="899.9" cy="433.3" r="0.6" fill="#dfe8ff" opacity="0.53"/>
<circle cx="1268" cy="176" r="121.6" fill="url(#earthGlow)"/>
<circle cx="1268" cy="176" r="64" fill="#05080f"/>
<g clip-path="url(#earthClip)"><circle cx="1240.8" cy="176" r="64" fill="url(#earthLit)"/><path d="M1228 156 q 22 -14 40 -4 t 30 10" stroke="#f4f7ff" stroke-width="5" fill="none" opacity=".35"/><path d="M1218 194 q 30 8 56 -2" stroke="#e8eefc" stroke-width="4" fill="none" opacity=".25"/></g>
<circle cx="1268" cy="176" r="64" fill="none" stroke="#9fc8ff" stroke-width="1.2" opacity=".35"/>
<polygon points="0,620 0,523.2 20,522.5 40,521.7 60,524.5 80,525 100,521.3 120,520.6 140,524.3 160,525.3 180,525.8 200,530.8 220,536.1 240,542.9 260,548.4 280,547.3 300,544.6 320,546.2 340,543.5 360,535 380,530 400,527.3 420,526.4 440,528.5 460,535.1 480,544.5 500,548.1 520,551.4 540,556.4 560,558.3 580,552.6 600,548.1 620,547.4 640,541.7 660,533.2 680,529.2 700,528 720,529.7 740,531.4 760,531.4 780,530.8 800,524.4 820,521.4 840,525.2 860,527.1 880,528.6 900,531.6 920,535.5 940,537 960,536.8 980,535 1000,531 1020,532.1 1040,530.6 1060,526.8 1080,522 1100,513.1 1120,511.4 1140,517.2 1160,522.5 1180,528.7 1200,533.8 1220,537.3 1240,546 1260,551.3 1280,549 1300,544.6 1320,540.2 1340,533.8 1360,523.4 1380,518.7 1400,518.1 1420,517.8 1440,517.1 1460,519.1 1480,521.6 1500,520.3 1520,519.4 1540,520.5 1560,521.6 1580,525.8 1600,527 1600,620" fill="#2a2a2b"/>
<polygon points="0,630 0,566.4 16,564 32,564.9 48,567.8 64,565.5 80,565.9 96,566.6 112,566.8 128,568.2 144,568.7 160,566.2 176,569.2 192,569.8 208,568.1 224,567.9 240,569.2 256,571.7 272,575.7 288,576.8 304,578 320,582.3 336,581.1 352,578.5 368,575.5 384,572.4 400,568.2 416,564.1 432,560.4 448,560.4 464,563.1 480,569.2 496,573 512,577.8 528,584.6 544,585.2 560,584.8 576,584.3 592,582.7 608,578 624,572.6 640,573.1 656,571.2 672,570.4 688,570.2 704,571.3 720,570.7 736,567.3 752,567.5 768,568.4 784,570.2 800,571.2 816,571 832,570.7 848,572.1 864,571.6 880,571.4 896,573.4 912,573.8 928,574.7 944,575.3 960,578.7 976,581.1 992,582.6 1008,579.6 1024,577 1040,573.3 1056,568.1 1072,563.5 1088,560.8 1104,561.1 1120,562.5 1136,565.8 1152,570.1 1168,573.8 1184,577.7 1200,580.6 1216,582.3 1232,578.9 1248,575.4 1264,573.9 1280,570.9 1296,568.6 1312,567.5 1328,566.9 1344,566.5 1360,566 1376,566.8 1392,569.8 1408,571.9 1424,569.1 1440,571.4 1456,572.8 1472,572.1 1488,574 1504,575.2 1520,575.4 1536,577.1 1552,576.8 1568,575.7 1584,575.2 1600,575.8 1600,630" fill="#393938"/>
<polyline points="0,566.4 16,564 32,564.9 48,567.8 64,565.5 80,565.9 96,566.6 112,566.8 128,568.2 144,568.7 160,566.2 176,569.2 192,569.8 208,568.1 224,567.9 240,569.2 256,571.7 272,575.7 288,576.8 304,578 320,582.3 336,581.1 352,578.5 368,575.5 384,572.4 400,568.2 416,564.1 432,560.4 448,560.4 464,563.1 480,569.2 496,573 512,577.8 528,584.6 544,585.2 560,584.8 576,584.3 592,582.7 608,578 624,572.6 640,573.1 656,571.2 672,570.4 688,570.2 704,571.3 720,570.7 736,567.3 752,567.5 768,568.4 784,570.2 800,571.2 816,571 832,570.7 848,572.1 864,571.6 880,571.4 896,573.4 912,573.8 928,574.7 944,575.3 960,578.7 976,581.1 992,582.6 1008,579.6 1024,577 1040,573.3 1056,568.1 1072,563.5 1088,560.8 1104,561.1 1120,562.5 1136,565.8 1152,570.1 1168,573.8 1184,577.7 1200,580.6 1216,582.3 1232,578.9 1248,575.4 1264,573.9 1280,570.9 1296,568.6 1312,567.5 1328,566.9 1344,566.5 1360,566 1376,566.8 1392,569.8 1408,571.9 1424,569.1 1440,571.4 1456,572.8 1472,572.1 1488,574 1504,575.2 1520,575.4 1536,577.1 1552,576.8 1568,575.7 1584,575.2 1600,575.8" fill="none" stroke="#716f69" stroke-width="1.4" opacity=".55"/>
<rect y="596" width="1600" height="404" fill="url(#ground)"/>
<ellipse cx="1020.8" cy="695.8" rx="28.8" ry="5" fill="#18191c" opacity=".55"/><path d="M992 695.8 A 28.8 5 0 0 0 1049.5 695.8" fill="none" stroke="#626160" stroke-width="1.2" opacity=".5"/>
<ellipse cx="973.8" cy="944.9" rx="101.2" ry="31.3" fill="#18191c" opacity=".55"/><path d="M872.6 944.9 A 101.2 31.3 0 0 0 1075 944.9" fill="none" stroke="#626160" stroke-width="2.2" opacity=".5"/>
<ellipse cx="1179.6" cy="628.7" rx="24.5" ry="3.3" fill="#18191c" opacity=".55"/><path d="M1155.2 628.7 A 24.5 3.3 0 0 0 1204.1 628.7" fill="none" stroke="#626160" stroke-width="0.9" opacity=".5"/>
<ellipse cx="1382.6" cy="716.4" rx="41.4" ry="7.6" fill="#18191c" opacity=".55"/><path d="M1341.2 716.4 A 41.4 7.6 0 0 0 1424.1 716.4" fill="none" stroke="#626160" stroke-width="1.3" opacity=".5"/>
<ellipse cx="472.3" cy="613.1" rx="22.3" ry="2.8" fill="#18191c" opacity=".55"/><path d="M450 613.1 A 22.3 2.8 0 0 0 494.6 613.1" fill="none" stroke="#626160" stroke-width="0.9" opacity=".5"/>
<ellipse cx="104.7" cy="671.5" rx="22.8" ry="3.6" fill="#18191c" opacity=".55"/><path d="M81.9 671.5 A 22.8 3.6 0 0 0 127.4 671.5" fill="none" stroke="#626160" stroke-width="1.1" opacity=".5"/>
<ellipse cx="365.9" cy="949.9" rx="28.6" ry="8.9" fill="#18191c" opacity=".55"/><path d="M337.3 949.9 A 28.6 8.9 0 0 0 394.5 949.9" fill="none" stroke="#626160" stroke-width="2.2" opacity=".5"/>
<ellipse cx="916.2" cy="637.2" rx="9.8" ry="1.4" fill="#18191c" opacity=".55"/><path d="M906.4 637.2 A 9.8 1.4 0 0 0 926 637.2" fill="none" stroke="#626160" stroke-width="0.9" opacity=".5"/>
<ellipse cx="238.3" cy="792.9" rx="51.8" ry="11.7" fill="#18191c" opacity=".55"/><path d="M186.5 792.9 A 51.8 11.7 0 0 0 290 792.9" fill="none" stroke="#626160" stroke-width="1.6" opacity=".5"/>
<ellipse cx="1300.2" cy="943.7" rx="68.5" ry="21.2" fill="#18191c" opacity=".55"/><path d="M1231.7 943.7 A 68.5 21.2 0 0 0 1368.7 943.7" fill="none" stroke="#626160" stroke-width="2.2" opacity=".5"/>
<ellipse cx="642" cy="838.5" rx="23.2" ry="5.8" fill="#18191c" opacity=".55"/><path d="M618.8 838.5 A 23.2 5.8 0 0 0 665.2 838.5" fill="none" stroke="#626160" stroke-width="1.8" opacity=".5"/>
<ellipse cx="1414.7" cy="660.3" rx="27.6" ry="4.2" fill="#18191c" opacity=".55"/><path d="M1387.1 660.3 A 27.6 4.2 0 0 0 1442.3 660.3" fill="none" stroke="#626160" stroke-width="1" opacity=".5"/>
<ellipse cx="1453.9" cy="841.4" rx="41.7" ry="10.5" fill="#18191c" opacity=".55"/><path d="M1412.2 841.4 A 41.7 10.5 0 0 0 1495.6 841.4" fill="none" stroke="#626160" stroke-width="1.8" opacity=".5"/>
<ellipse cx="1438.3" cy="663.1" rx="35.9" ry="5.6" fill="#18191c" opacity=".55"/><path d="M1402.4 663.1 A 35.9 5.6 0 0 0 1474.2 663.1" fill="none" stroke="#626160" stroke-width="1.1" opacity=".5"/>
<ellipse cx="327.9" cy="889.1" rx="61.3" ry="17.1" fill="#18191c" opacity=".55"/><path d="M266.6 889.1 A 61.3 17.1 0 0 0 389.3 889.1" fill="none" stroke="#626160" stroke-width="2" opacity=".5"/>
<ellipse cx="1432.2" cy="833.5" rx="51.7" ry="12.8" fill="#18191c" opacity=".55"/><path d="M1380.5 833.5 A 51.7 12.8 0 0 0 1483.9 833.5" fill="none" stroke="#626160" stroke-width="1.7" opacity=".5"/>
<ellipse cx="1265.1" cy="803.6" rx="61.3" ry="14.2" fill="#18191c" opacity=".55"/><path d="M1203.7 803.6 A 61.3 14.2 0 0 0 1326.4 803.6" fill="none" stroke="#626160" stroke-width="1.6" opacity=".5"/>
<ellipse cx="793.7" cy="784" rx="28.6" ry="6.3" fill="#18191c" opacity=".55"/><path d="M765.1 784 A 28.6 6.3 0 0 0 822.3 784" fill="none" stroke="#626160" stroke-width="1.5" opacity=".5"/>
<ellipse cx="839.3" cy="691.9" rx="32.4" ry="5.5" fill="#18191c" opacity=".55"/><path d="M806.9 691.9 A 32.4 5.5 0 0 0 871.7 691.9" fill="none" stroke="#626160" stroke-width="1.2" opacity=".5"/>
<ellipse cx="675.3" cy="890.7" rx="29.4" ry="8.2" fill="#18191c" opacity=".55"/><path d="M645.8 890.7 A 29.4 8.2 0 0 0 704.7 890.7" fill="none" stroke="#626160" stroke-width="2" opacity=".5"/>
<ellipse cx="1418.4" cy="836.5" rx="74" ry="18.5" fill="#18191c" opacity=".55"/><path d="M1344.4 836.5 A 74 18.5 0 0 0 1492.5 836.5" fill="none" stroke="#626160" stroke-width="1.7" opacity=".5"/>
<ellipse cx="1397.7" cy="912" rx="67.5" ry="19.7" fill="#18191c" opacity=".55"/><path d="M1330.3 912 A 67.5 19.7 0 0 0 1465.2 912" fill="none" stroke="#626160" stroke-width="2" opacity=".5"/>
<ellipse cx="247.5" cy="628.1" rx="5.5" ry="0.7" fill="#18191c" opacity=".55"/><path d="M242 628.1 A 5.5 0.7 0 0 0 253 628.1" fill="none" stroke="#626160" stroke-width="0.9" opacity=".5"/>
<ellipse cx="1254.5" cy="902.3" rx="62.4" ry="17.9" fill="#18191c" opacity=".55"/><path d="M1192.1 902.3 A 62.4 17.9 0 0 0 1317 902.3" fill="none" stroke="#626160" stroke-width="2" opacity=".5"/>
<ellipse cx="1297.6" cy="810.6" rx="36.5" ry="8.6" fill="#18191c" opacity=".55"/><path d="M1261 810.6 A 36.5 8.6 0 0 0 1334.1 810.6" fill="none" stroke="#626160" stroke-width="1.6" opacity=".5"/>
<ellipse cx="608.3" cy="614" rx="24.1" ry="3.1" fill="#18191c" opacity=".55"/><path d="M584.2 614 A 24.1 3.1 0 0 0 632.3 614" fill="none" stroke="#626160" stroke-width="0.9" opacity=".5"/>
</svg>
