<svg xmlns="http://www.w3.org/2000/svg" width="1600" height="1000" viewBox="0 0 1600 1000">
<defs>
<linearGradient id="sky" x1="0" y1="0" x2="0" y2="1"><stop offset="0" stop-color="#020306"/><stop offset="1" stop-color="#0a0d14"/></linearGradient>
<linearGradient id="ground" x1="0" y1="0" x2="0" y2="1"><stop offset="0" stop-color="#404042"/><stop offset="1" stop-color="#1a1a1c"/></linearGradient>
<linearGradient id="structGrad" x1="0" y1="0" x2="1" y2="0"><stop offset="0" stop-color="#808283"/><stop offset=".55" stop-color="#575a5d"/><stop offset="1" stop-color="#3b3f43"/></linearGradient>
<radialGradient id="earthLit" cx=".35" cy=".4" r=".7"><stop offset="0" stop-color="#e8f2ff"/><stop offset=".45" stop-color="#5b93d8"/><stop offset="1" stop-color="#1b3e78"/></radialGradient>
<radialGradient id="earthGlow"><stop offset=".5" stop-color="#6aa8ff" stop-opacity=".22"/><stop offset="1" stop-color="#6aa8ff" stop-opacity="0"/></radialGradient>
<radialGradient id="warmGlow"><stop offset="0" stop-color="#ffc27a" stop-opacity=".75"/><stop offset="1" stop-color="#ffc27a" stop-opacity="0"/></radialGradient>
<radialGradient id="redGlow"><stop offset="0" stop-color="#ff5a3a" stop-opacity=".7"/><stop offset="1" stop-color="#ff5a3a" stop-opacity="0"/></radialGradient>
<radialGradient id="coolGlow"><stop offset="0" stop-color="#bfe6ff" stop-opacity=".8"/><stop offset="1" stop-color="#bfe6ff" stop-opacity="0"/></radialGradient>
<radialGradient id="plume" cx=".5" cy=".2"><stop offset="0" stop-color="#ffffff" stop-opacity=".95"/><stop offset=".4" stop-color="#9fd4ff" stop-opacity=".5"/><stop offset="1" stop-color="#9fd4ff" stop-opacity="0"/></radialGradient>
<linearGradient id="horizonDust" x1="0" y1="0" x2="0" y2="1"><stop offset="0" stop-color="#3f3b37" stop-opacity="0"/><stop offset=".5" stop-color="#3f3b37" stop-opacity=".55"/><stop offset="1" stop-color="#3f3b37" stop-opacity="0"/></linearGradient>
<clipPath id="earthClip"><circle cx="1268" cy="176" r="64"/></clipPath>
</defs>

<polygon points="-54.1,960 -36.6,938.5 -24.9,917.3 4.8,904.4 37.8,898.5 70,882.7 108.4,886.8 123.2,914.6 144.8,926.3 156.2,942.6 186.4,960" fill="#1a1a1c"/>
<polyline points="-54.1,960 -36.6,938.5 -24.9,917.3 4.8,904.4 37.8,898.5 70,882.7" fill="none" stroke="#72706b" stroke-width="2" opacity=".5"/>
<polygon points="156,1000 142.3,984.4 154.1,970.3 175,961.6 199.8,961.5 220,949.6 245.2,951.8 263.1,963.3 282.3,971.9 292.4,985.4 284.7,1000" fill="#1a1a1c"/>
<polyline points="156,1000 142.3,984.4 154.1,970.3 175,961.6 199.8,961.5 220,949.6" fill="none" stroke="#72706b" stroke-width="2" opacity=".5"/>
<polygon points="1373.2,975 1340.7,946.9 1389.4,934.2 1393.8,901.5 1439.4,897.5 1480,900.9 1523.9,891.3 1546.6,918.1 1580.1,929.9 1596.1,951.6 1579.9,975" fill="#1a1a1c"/>
<polyline points="1373.2,975 1340.7,946.9 1389.4,934.2 1393.8,901.5 1439.4,897.5 1480,900.9" fill="none" stroke="#72706b" stroke-width="2" opacity=".5"/>
<polygon points="1258.3,1010 1280.4,1000 1277,986.1 1287,973.3 1309.3,970.4 1330,974.1 1351.7,968.7 1363.7,981.2 1375.2,989.7 1395.9,996.7 1397.3,1010" fill="#1a1a1c"/>
<polyline points="1258.3,1010 1280.4,1000 1277,986.1 1287,973.3 1309.3,970.4 1330,974.1" fill="none" stroke="#72706b" stroke-width="2" opacity=".5"/>
<polygon points="601.7,1012 593.9,1002.7 601.2,994.5 619.2,994.2 624,981.5 640,981.3 654.7,983.9 669.5,986.9 676.2,995.7 676.4,1004.7 682.3,1012" fill="#1a1a1c"/>
<polyline points="601.7,1012 593.9,1002.7 601.2,994.5 619.2,994.2 624,981.5 640,981.3" fill="none" stroke="#72706b" stroke-width="2" opacity=".5"/>
<polygon points="-20,1010 -20,1001.6 0,999.6 20,1001.4 40,1003.5 60,1001 80,995.2 100,993.9 120,995.1 140,995.3 160,994.5 180,994 200,995.2 220,997.2 240,997.1 260,996.5 280,996.1 300,994.3 320,993.8 340,996.5 360,998.6 380,999.4 400,1000.4 420,998.6 440,994.1 460,993.5 480,995.2 500,995.8 520,993.7 540,992.1 560,991.7 580,991.1 600,992.8 620,996.9 640,997.2 660,994.5 680,993.6 700,996.4 720,998.7 740,997.1 760,994.9 780,995.6 800,997 820,997.1 840,995.1 860,994.4 880,996.4 900,997.9 920,1000.4 940,1003.8 960,1001.3 980,994.8 1000,994.2 1020,998.3 1040,999.7 1060,995.5 1080,992.3 1100,993.1 1120,994.1 1140,995.1 1160,997.5 1180,997.3 1200,994.8 1220,993.8 1240,997.1 1260,999.7 1280,998.4 1300,996.8 1320,995.5 1340,993 1360,993.7 1380,999.3 1400,1001.9 1420,1002.3 1440,1002.7 1460,1000.7 1480,998 1500,996.9 1520,994.2 1540,994.1 1560,996 1580,996.9 1600,996.5 1620,996.2 1620,1010" fill="#3e3b34"/><polyline points="-20,1001.6 0,999.6 20,1001.4 40,1003.5 60,1001 80,995.2 100,993.9 120,995.1 140,995.3 160,994.5 180,994 200,995.2 220,997.2 240,997.1 260,996.5 280,996.1 300,994.3 320,993.8 340,996.5 360,998.6 380,999.4 400,1000.4 420,998.6 440,994.1 460,993.5 480,995.2 500,995.8 520,993.7 540,992.1 560,991.7 580,991.1 600,992.8 620,996.9 640,997.2 660,994.5 680,993.6 700,996.4 720,998.7 740,997.1 760,994.9 780,995.6 800,997 820,997.1 840,995.1 860,994.4 880,996.4 900,997.9 920,1000.4 940,1003.8 960,1001.3 980,994.8 1000,994.2 1020,998.3 1040,999.7 1060,995.5 1080,992.3 1100,993.1 1120,994.1 1140,995.1 1160,997.5 1180,997.3 1200,994.8 1220,993.8 1240,997.1 1260,999.7 1280,998.4 1300,996.8 1320,995.5 1340,993 1360,993.7 1380,999.3 1400,1001.9 1420,1002.3 1440,1002.7 1460,1000.7 1480,998 1500,996.9 1520,994.2 1540,994.1 1560,996 1580,996.9 1600,996.5 1620,996.2" fill="none" stroke="#5e594e" stroke-width="1.6" opacity=".55"/><polyline points="-20,1013.1 0,1012 20,1014.3 40,1016.5 60,1013.6 80,1007.1 100,1004.7 120,1004.7 140,1003.5 160,1001.5 180,999.9 200,1000.5 220,1002.2 240,1002.3 260,1002.2 280,1002.8 300,1002.2 320,1003 340,1007 360,1010.2 380,1011.9 400,1013.3 420,1011.6 440,1006.6 460,1005.2 480,1005.8 500,1005.2 520,1001.8 540,998.9 560,997.5 580,996.3 600,997.8 620,1002.1 640,1003 660,1001.3 680,1001.6 700,1005.8 720,1009.4 740,1008.8 760,1007.5 780,1008.5 800,1009.9 820,1009.5 840,1006.7 860,1004.9 880,1005.6 900,1005.7 920,1007.1 940,1009.6 960,1006.4 980,999.8 1000,999.5 1020,1004.3 1040,1006.7 1060,1003.7 1080,1001.9 1100,1004 1120,1006.1 1140,1007.8 1160,1010.5 1180,1010.2 1200,1007.1 1220,1005.2 1240,1007.4 1260,1008.6 1280,1006 1300,1003.3 1320,1001.2 1340,998.1 1360,998.8 1380,1004.7 1400,1008.1 1420,1009.5 1440,1011.1 1460,1010.5 1480,1009 1500,1008.9 1520,1007 1540,1007.1 1560,1008.9 1580,1009.1 1600,1007.7 1620,1006.3" fill="none" stroke="#5e594e" stroke-width=".7" opacity="0.25"/><polyline points="-20,1023.6 0,1021.2 20,1022.3 40,1023.3 60,1019.5 80,1012.5 100,1009.8 120,1010.1 140,1009.5 160,1008.5 180,1008.1 200,1010 220,1012.9 240,1014 260,1014.7 280,1015.6 300,1014.9 320,1015.3 340,1018.4 360,1020.6 380,1021 400,1021.2 420,1018.3 440,1012.4 460,1010.5 480,1011 500,1010.6 520,1007.9 540,1006.1 560,1005.9 580,1006 600,1008.7 620,1014 640,1015.6 660,1014.2 680,1014.3 700,1018 720,1020.6 740,1019 760,1016.3 780,1016.2 800,1016.5 820,1015.2 840,1011.9 860,1010.1 880,1011.1 900,1012 920,1014.4 940,1018.1 960,1016.3 980,1010.8 1000,1011.5 1020,1016.9 1040,1019.5 1060,1016.4 1080,1013.9 1100,1015.1 1120,1016 1140,1016.5 1160,1017.9 1180,1016.5 1200,1012.7 1220,1010.4 1240,1012.6 1260,1014.3 1280,1012.5 1300,1010.8 1320,1009.9 1340,1008.1 1360,1009.9 1380,1016.8 1400,1020.7 1420,1022.3 1440,1023.7 1460,1022.4 1480,1020 1500,1018.7 1520,1015.5 1540,1014.4 1560,1015.1 1580,1014.6 1600,1012.9 1620,1011.5" fill="none" stroke="#5e594e" stroke-width=".7" opacity="0.13"/><polyline points="-20,1030.5 0,1027.2 20,1027.6 40,1028.5 60,1025 80,1018.5 100,1016.9 120,1018.3 140,1019 160,1019.2 180,1019.8 200,1022.4 220,1025.7 240,1026.7 260,1027 280,1027.1 300,1025.2 320,1024.4 340,1026.3 360,1027.3 380,1026.8 400,1026.4 420,1023.5 440,1017.9 460,1016.7 480,1018.2 500,1019 520,1017.6 540,1017 560,1017.8 580,1018.5 600,1021.5 620,1026.7 640,1027.7 660,1025.4 680,1024.5 700,1026.8 720,1028.3 740,1025.5 760,1022.1 780,1021.4 800,1021.6 820,1020.8 840,1018.2 860,1017.4 880,1019.7 900,1021.8 920,1025.5 940,1030.1 960,1028.9 980,1023.6 1000,1024.1 1020,1028.9 1040,1030.7 1060,1026.3 1080,1022.6 1100,1022.5 1120,1022.4 1140,1022.1 1160,1023.1 1180,1021.8 1200,1018.4 1220,1016.9 1240,1020.2 1260,1023 1280,1022.5 1300,1022 1320,1022 1340,1020.8 1360,1022.8 1380,1029.4 1400,1032.7 1420,1033.3 1440,1033.5 1460,1030.9 1480,1027.3 1500,1025 1520,1021 1540,1019.6 1560,1020.4 1580,1020.4 1600,1019.5 1620,1019.2" fill="none" stroke="#5e594e" stroke-width=".7" opacity="0.08"/>
<rect width="1600" height="1000" fill="#3f3b37" opacity="0.083"/>
<rect y="480" width="1600" height="240" fill="url(#horizonDust)" opacity="0.10"/>
</svg>
